<?xml version="1.0" encoding="utf-8"?>
<!-- Generator: Adobe Illustrator 28.2.0, SVG Export Plug-In . SVG Version: 6.00 Build 0)  -->
<svg version="1.1" xmlns="http://www.w3.org/2000/svg" xmlns:xlink="http://www.w3.org/1999/xlink" x="0px" y="0px"
	 viewBox="0 0 1920 1080" style="enable-background:new 0 0 1920 1080;" xml:space="preserve">
<style type="text/css">
	.st0{fill:#FFF6E1;}
	.st1{opacity:0.32;}
	.st2{clip-path:url(#BACKGROUND_00000067957313038172787670000009535849903452830086_);}
	.st3{fill:#FFDA72;}
	.st4{opacity:0.69;fill:#FFDA72;}
	.st5{fill:#00BBB7;}
	.st6{fill:none;stroke:#3D1F45;stroke-linecap:round;stroke-miterlimit:10;}
	.st7{fill:#426969;}
	.st8{fill:#EFF3D9;}
	.st9{fill:#FF667E;}
	.st10{fill:#E7A73C;}
	.st11{fill:none;stroke:#443956;stroke-linecap:round;stroke-miterlimit:10;}
	.st12{fill:#443956;}
	.st13{fill:#89D3CC;}
	.st14{fill:#CD3329;}
	.st15{fill:#24225F;}
	.st16{fill:none;stroke:#E7A73C;stroke-linecap:round;stroke-miterlimit:10;}
	.st17{fill:none;stroke:#FF667E;stroke-linecap:round;stroke-miterlimit:10;}
	.st18{fill:#F28838;}
	.st19{fill:#FFB56C;}
	.st20{fill:#FFA741;}
	.st21{fill:none;stroke:#1E2B39;stroke-linecap:round;stroke-miterlimit:10;}
	.st22{fill:none;stroke:#FFFFFF;stroke-linecap:round;stroke-miterlimit:10;}
	.st23{fill:#FFD278;}
	.st24{fill:#1E2B39;}
	.st25{fill:none;stroke:#1E2B39;stroke-width:2;stroke-linecap:round;stroke-miterlimit:10;}
	.st26{opacity:0.69;}
	.st27{fill:none;stroke:#3D2039;stroke-linecap:round;stroke-miterlimit:10;}
	.st28{fill:#669999;}
	.st29{font-family:'PassionOne-Bold';}
	.st30{font-size:138.8988px;}
	.st31{fill:#394497;}
	.st32{font-size:112.2607px;}
</style>
<g id="BACKGROUND">
	<rect class="st0" width="1920" height="1080"/>
</g>
<g id="OBJECTS">
	<g class="st1">
		<defs>
			<rect id="BACKGROUND_1_" class="st1" width="1920" height="1080"/>
		</defs>
		<clipPath id="BACKGROUND_00000081624962317784892920000007721139481115504819_">
			<use xlink:href="#BACKGROUND_1_"  style="overflow:visible;"/>
		</clipPath>
		<g style="clip-path:url(#BACKGROUND_00000081624962317784892920000007721139481115504819_);">
			<path class="st3" d="M-72.9,686.2c12.2,2.1,23.5,5.5,33.2,10.3c55.3,27.8,24.1,83.3,100,167.9C124,935.5,280,940,365.1,983.1
				c141.6,71.7,127.2,223.2,47.2,282.4c-126.7,93.8-248.8-24.8-322,24.4c-74.3,49.9,128.2,182.4,82.5,243.9
				c-47.5,63.9-267.8-144.4-414.3-296c-1.3-1.3-2.6-2.7-3.8-4c-98.1-105.1-106.3-265.8-21.6-382.1
				C-215.2,780.8-128.7,676.4-72.9,686.2z"/>
			<path class="st3" d="M2004.5,700c-16.6-7.7-31.5-16.7-43.6-27.3c-68.7-60.5-4.2-128-81.7-277.4
				c-65-125.4-285.9-190.6-391.6-284.2c-175.9-155.7-100.3-366.6,35.2-420.9c214.8-86.2,345.9,129.1,468,86.4
				c124.1-43.3-116.6-308.7-29.1-379.3c90.9-73.4,329.4,307,483.3,578.6c1.4,2.4,2.7,4.8,4,7.2c101.7,187,55,419.5-107.9,553.6
				C2241.8,618.6,2080.4,735,2004.5,700z"/>
		</g>
	</g>
	<g>
		<path class="st4" d="M899,452.9c-82.1,140.2-45.3,384,130.8,390.2c31.8,1.1,58.8,1.7,77.9,1.5c101.8-1.2,135.3-17.1,230.6,18.6
			c158.6,59.5,299.4-114.3,264.3-232.9c-49.3-166.7-28.1-145.1-12.7-225.4c9.5-49.4-38.9-160.8-176.4-176.7
			C1267,211.3,1008.6,265.8,899,452.9z"/>
		<g>
			<g>
				<g>
					<g>
						<path class="st5" d="M978,822c-3.6-26.9-24.7-127.1,15.5-121.8C1042.7,706.6,978.5,825.5,978,822z"/>
						<path class="st5" d="M927.1,780.6c-6.4-26-37.8-122.3,2.3-121.4C978.4,660.2,928,784,927.1,780.6z"/>
						<path class="st5" d="M879.7,734.9c-20.3-3.7-87.5-63.2-63.7-79.9C845.1,634.6,882.2,735.3,879.7,734.9z"/>
						<path class="st5" d="M1032.6,859.5c-2.3-24.3,6.2-149,39.2-128.2C1122.8,763.4,1032.6,859.5,1032.6,859.5z"/>
						<path class="st6" d="M1189,948.1c0,0-150.8-54.4-292.7-194.5"/>
						<path class="st5" d="M974.7,825.5c-27.1,0.4-129.4-5.4-118.2,33.6C870.3,906.7,978.3,825.5,974.7,825.5z"/>
						<path class="st5" d="M924.7,782.9c-23-7.1-107.5-40-108.8-4.1C814.4,822.6,927.7,783.8,924.7,782.9z"/>
						<path class="st5" d="M1025.5,867.1c-24.4-0.4-148,18.1-124.7,49.3C937,964.6,1025.5,867.1,1025.5,867.1z"/>
					</g>
				</g>
			</g>
			<g>
				<g>
					<g>
						
							<image style="overflow:visible;" width="175" height="513" xlink:href="2D11E2CA.png"  transform="matrix(0.24 0 0 0.24 1542.8 678)">
						</image>
						<path class="st5" d="M1623.4,753.4c7.5-20.2,41.1-94.2,9.1-97.1C1593.3,652.8,1622.4,756,1623.4,753.4z"/>
						<path class="st5" d="M1673.8,725.3c20.6-1.4,94-53,72.2-72.3C1719.4,629.5,1671.3,725.5,1673.8,725.3z"/>
						<path class="st5" d="M1507.9,832c5-23.9,10.5-148.8-24.6-131.8C1429.1,726.5,1507.9,832,1507.9,832z"/>
						<path class="st6" d="M1342.6,902.6c0,0,155.9-37.1,312.6-160.5"/>
						<path class="st5" d="M1569.2,804.8c26.9,3.5,129.1,9.2,113.7,46.6C1663.9,897.1,1565.7,804.3,1569.2,804.8z"/>
						<path class="st5" d="M1629.3,768.1c21.2-4,100.1-24.9,97.6,7.2C1723.9,814.7,1626.5,768.6,1629.3,768.1z"/>
						<path class="st5" d="M1514.1,840.4c24.3,2.3,145.1,34.6,118.4,62.9C1591.2,947.2,1514.1,840.4,1514.1,840.4z"/>
					</g>
				</g>
			</g>
			<g>
				<g>
					<path class="st7" d="M1447.4,372h-242.5h-15.1h-163.1c-7.5,0-13.9,6.7-13.9,14.6l0,269v275.7v5.6c0,7.9,6.4,14.6,13.9,14.6
						l260.9,0h159.8c7.5,0,13.9-6.7,13.9-14.6l0-274.1l0-270.7v-5.6C1461.3,378.6,1454.9,372,1447.4,372"/>
					<path class="st8" d="M1427.4,408.2h-218.2h-13.6h-146.8c-6.8,0-12.5,6-12.5,13.1v242.1l0,248.1v5.1c0,7.1,5.7,13.1,12.5,13.1
						h234.8h143.8c6.8,0,12.5-6,12.5-13.1V670l0-243.6v-5C1439.9,414.2,1434.2,408.2,1427.4,408.2"/>
					<g>
						<path class="st9" d="M1178.2,461.6c-18.1,0-35.8,4.9-51.4,14.2l7.4,9.5l3.3,4.2l26.2,33.4l25.7,32.8c0,0,0.1,0.1,0.1,0.2
							c0,0,0,0.1,0,0.1c0,0.1-0.1,0.1-0.2,0.1l-17.9-5.5l-12.4-3.8l-20.8-6.4l-20.8-6.4l-16.1-4.9l-16.1-4.9
							c-9.9,24.4-9.9,51.2,0,75.6c10,24.4,28.8,43.7,53,54.1c12.7,5.5,26,8.3,39.7,8.3c40,0,76.2-23.7,92.1-60.4
							c21.9-50.7-1.5-109.8-52.2-131.8C1205.2,464.4,1191.8,461.6,1178.2,461.6"/>
						<path class="st10" d="M1102.6,459.4L1102.6,459.4L1102.6,459.4c-18,10.8-31.9,26.7-40.3,46c-0.2,0.5-0.4,1-0.7,1.6l0.2,0.1
							l21.9,6.7c13.9,4.3,27.8,8.5,41.7,12.8l19.7,6l19.7,6.1l-10-12.8l-10-12.8l-13.2-16.8l-13.1-16.7l-7.9-10.1L1102.6,459.4
							C1102.6,459.4,1102.6,459.4,1102.6,459.4"/>
						<line class="st11" x1="1061.6" y1="507" x2="1164.8" y2="538.8"/>
						<line class="st11" x1="1085.3" y1="524.1" x2="1189.3" y2="556"/>
					</g>
					<g>
						<g>
							<g>
								<path class="st12" d="M1174.9,707.4l-60.4,0h-30.1c-1,0-1.9,0.9-1.9,1.9s0.8,1.9,1.9,1.9h63.1h56.8h13.5
									c1,0,1.9-0.9,1.9-1.9c0-1-0.8-1.9-1.9-1.9H1174.9z"/>
								<path class="st12" d="M1178.5,725.7h-67.4h-13.8h-12.8c-1,0-1.9,0.9-1.9,1.9c0,1,0.9,1.9,1.9,1.9h1.3h11.5l52.3,0h61.6h6.5
									c1,0,1.9-0.9,1.9-1.9s-0.9-1.9-1.9-1.9H1178.5z"/>
								<path class="st12" d="M1171,744.2h-68.5h-8.6h-8.7c-1,0-1.9,0.9-1.9,1.9s0.9,1.9,1.9,1.9h0.3h8.4h58.8h62.5h2.7
									c1,0,1.9-0.9,1.9-1.9c0-1-0.9-1.9-1.9-1.9H1171z"/>
							</g>
							<g>
								<path class="st12" d="M1341.6,707.4h-60.4h-30.1c-1,0-1.9,0.9-1.9,1.9c0,1,0.8,1.9,1.9,1.9h63.1h56.8h13.5
									c1,0,1.9-0.9,1.9-1.9c0-1-0.8-1.9-1.9-1.9H1341.6z"/>
								<path class="st12" d="M1345.2,725.7h-67.4H1264h-12.8c-1,0-1.9,0.9-1.9,1.9s0.9,1.9,1.9,1.9h1.3h11.5h52.3h61.6h6.5
									c1,0,1.9-0.9,1.9-1.9s-0.9-1.9-1.9-1.9H1345.2z"/>
								<path class="st12" d="M1337.7,744.2h-68.5h-8.6h-8.7c-1,0-1.9,0.9-1.9,1.9c0,1,0.9,1.9,1.9,1.9h0.3h8.4h58.8h62.5h2.7
									c1,0,1.9-0.9,1.9-1.9c0-1-0.9-1.9-1.9-1.9H1337.7z"/>
							</g>
						</g>
					</g>
					<g>
						<path class="st13" d="M1315.7,356.2l-144.9,0c-19.2,1.9-5.2,32.1,6.4,42.8l132.9-0.5C1318.2,387.1,1335,358.7,1315.7,356.2z"
							/>
					</g>
					<g>
						<g>
							<path class="st14" d="M1152.8,853.5c0,0-0.1,0-0.1,0.1C1152.7,853.5,1152.7,853.5,1152.8,853.5 M1382.4,792.8
								C1382.3,792.8,1382.3,792.8,1382.4,792.8c-0.1,0-0.1,0-0.1,0C1382.3,792.8,1382.3,792.8,1382.4,792.8"/>
							<path class="st10" d="M1115.6,836.3c0,0-0.1,0-0.1,0.1C1115.5,836.3,1115.5,836.3,1115.6,836.3 M1240.1,855.4
								c0,0-0.1,0-0.1,0C1240,855.4,1240,855.4,1240.1,855.4 M1313.4,782.8L1313.4,782.8C1313.3,782.8,1313.3,782.8,1313.4,782.8
								C1313.3,782.8,1313.4,782.8,1313.4,782.8"/>
							<path class="st15" d="M1401.4,760.7c-0.2,36.1-0.3,72.2-0.5,108.4c0,3.6,0,7.1-0.1,10.7c-39.1-0.2-78.2-0.4-117.3-0.6
								c-39.9-0.2-79.8-0.4-119.7-0.6c-29.6-0.1-59.2-0.3-88.8-0.4l-2.8,0h0h-0.1c-0.8,0-1.5,0.7-1.5,1.5c0,0.8,0.7,1.5,1.5,1.5
								c22.6,0.1,45.2,0.2,67.9,0.3c38.9,0.2,77.8,0.4,116.7,0.6c40.9,0.2,81.7,0.4,122.6,0.6c7.7,0,15.4,0.1,23.1,0.1
								c0.8,0,1.5-0.7,1.5-1.5c0.2-36.5,0.3-73.1,0.5-109.6c0-3.7,0-7.3,0.1-11c0-0.8-0.7-1.5-1.5-1.5
								C1402.1,759.2,1401.4,759.9,1401.4,760.7"/>
						</g>
						<path class="st16" d="M1089,855.4l62.1-49.4c5.1-4.1,12.5-3.7,17.2,0.9l41.2,40.1c8.8,8.6,23,8.3,31.5-0.6l8.8-9.1
							c8.6-9,22.9-9.2,31.7-0.4l16.9,16.9c4.2,4.2,9.8,6.5,15.7,6.5h40.5c11.4,0,22.3-4.5,30.4-12.6l15.9-15.9"/>
						<path class="st17" d="M1126,856.8l30.9-36.6c3.6-4.3,9.5-5.8,14.7-3.8l82.9,32.2c5.1,2,10.8,0.6,14.4-3.5l25.2-28.2
							c6.9-7.7,19.7-4.7,22.4,5.4l2.1,7.9c2.9,11.2,17.9,13.3,23.8,3.4l0,0c4-6.7,13-8.4,19.2-3.6l42.4,32.6"/>
					</g>
				</g>
				<circle class="st15" cx="1243.4" cy="352.9" r="34.2"/>
				
					<ellipse transform="matrix(0.1533 -0.9882 0.9882 0.1533 707.6947 1524.4858)" class="st12" cx="1243.4" cy="349.3" rx="34.2" ry="34.2"/>
			</g>
			<g>
				<g>
					<g>
						<g>
							<g>
								<g>
									<path class="st18" d="M1205.9,894.8c-8.2-5.4-31.2-9.3-58.4-9.3c-27.2,0-50.3,3.8-58.5,9.1l-3.2,0l0,18.4
										c0,7.5,27.6,13.5,61.6,13.6c34,0.1,61.7-5.9,61.7-13.4l0-18.4L1205.9,894.8z"/>
									<path class="st19" d="M1097.3,902.5l0,18.4c4,1.2,9,2.3,14.6,3.2l0-18.4C1106.3,904.8,1101.4,903.7,1097.3,902.5z"/>
									<path class="st19" d="M1147.4,908.2c-9.3,0-18.2-0.5-26.1-1.3l0,18.4c7.9,0.8,16.8,1.3,26.1,1.3c7.5,0,14.8-0.3,21.5-0.8
										l0-18.4C1162.2,907.9,1155,908.2,1147.4,908.2z"/>
									<path class="st19" d="M1177.2,906.6l0,18.4c6.9-0.8,13-1.9,18-3.2l0-18.4C1190.2,904.6,1184.1,905.7,1177.2,906.6z"/>
									
										<ellipse transform="matrix(1.737488e-03 -1 1 1.737488e-03 250.7643 2040.5715)" class="st20" cx="1147.4" cy="894.7" rx="13.5" ry="61.7"/>
									<path class="st21" d="M1183.7,888.8c-8.7-2-21.7-3.3-36.3-3.3c-26.3,0-47.7,4-47.7,9.1c0,1,0.9,2,2.5,2.9"/>
									<path class="st22" d="M1195.1,894.8c0,5.1-21.4,9.2-47.7,9.1c-8.3,0-16.1-0.4-22.9-1.2"/>
								</g>
							</g>
						</g>
						<line class="st21" x1="1097.3" y1="902.5" x2="1097.3" y2="920.9"/>
						<line class="st21" x1="1121.3" y1="925.3" x2="1121.3" y2="906.9"/>
						<line class="st21" x1="1168.9" y1="907.4" x2="1168.8" y2="925.8"/>
					</g>
					<g>
						<g>
							<g>
								<g>
									<path class="st18" d="M1197.3,874c-8.2-5.4-31.2-9.3-58.4-9.3c-27.2,0-50.3,3.8-58.5,9.1l-3.2,0l0,18.4
										c0,7.5,27.6,13.5,61.6,13.6s61.7-5.9,61.7-13.4l0-18.4L1197.3,874z"/>
									<path class="st19" d="M1088.7,881.7l0,18.4c4,1.2,9,2.3,14.6,3.2l0-18.4C1097.7,884,1092.8,882.9,1088.7,881.7z"/>
									<path class="st19" d="M1138.8,887.4c-9.3,0-18.2-0.5-26.1-1.3l0,18.4c7.9,0.8,16.8,1.3,26.1,1.3c7.5,0,14.8-0.3,21.5-0.8
										l0-18.4C1153.6,887.1,1146.4,887.4,1138.8,887.4z"/>
									<path class="st19" d="M1168.6,885.7l0,18.4c6.9-0.8,13-1.9,18-3.2l0-18.4C1181.6,883.8,1175.5,884.9,1168.6,885.7z"/>
									
										<ellipse transform="matrix(1.737489e-03 -1 1 1.737489e-03 262.9936 2011.1818)" class="st20" cx="1138.8" cy="873.9" rx="13.5" ry="61.7"/>
									<path class="st21" d="M1175.1,867.9c-8.7-2-21.7-3.3-36.3-3.3c-26.3,0-47.7,4-47.7,9.1c0,1,0.9,2,2.5,2.9"/>
									<path class="st21" d="M1186.5,873.9c0,5.1-21.4,9.2-47.7,9.1c-8.3,0-16.1-0.4-22.9-1.2"/>
								</g>
							</g>
						</g>
						<line class="st21" x1="1088.7" y1="881.7" x2="1088.7" y2="900"/>
						<line class="st21" x1="1112.7" y1="904.4" x2="1112.7" y2="886"/>
						<line class="st21" x1="1160.3" y1="886.6" x2="1160.2" y2="905"/>
					</g>
					<g>
						<g>
							<g>
								<g>
									<path class="st18" d="M1210,851c-8.2-5.4-31.2-9.3-58.4-9.3c-27.2,0-50.3,3.8-58.5,9.1l-3.2,0l0,18.4
										c0,7.5,27.6,13.5,61.6,13.6s61.7-5.9,61.7-13.4l0-18.4L1210,851z"/>
									<path class="st19" d="M1101.4,858.7l0,18.4c4,1.2,9,2.3,14.6,3.2l0-18.4C1110.4,861,1105.5,859.9,1101.4,858.7z"/>
									<path class="st19" d="M1151.5,864.4c-9.3,0-18.2-0.5-26.1-1.3l0,18.4c7.9,0.8,16.8,1.3,26.1,1.3c7.5,0,14.8-0.3,21.5-0.8
										l0-18.4C1166.3,864.2,1159.1,864.4,1151.5,864.4z"/>
									<path class="st19" d="M1181.3,862.8l0,18.4c6.9-0.8,13-1.9,18-3.2l0-18.4C1194.3,860.9,1188.2,862,1181.3,862.8z"/>
									<path class="st20" d="M1213.2,851c0,7.5-27.6,13.4-61.7,13.4c-34-0.1-61.6-6.1-61.6-13.6c0-7.5,27.6-13.4,61.7-13.4
										C1185.6,837.5,1213.2,843.6,1213.2,851z"/>
									<path class="st21" d="M1187.8,845c-8.7-2-21.7-3.3-36.3-3.3c-26.3,0-47.7,4-47.7,9.1c0,1,0.9,2,2.5,2.9"/>
									<path class="st21" d="M1199.2,851c0,5.1-21.4,9.2-47.7,9.1c-8.3,0-16.1-0.4-22.9-1.2"/>
								</g>
							</g>
						</g>
						<line class="st21" x1="1101.4" y1="858.7" x2="1101.4" y2="877.1"/>
						<line class="st21" x1="1125.4" y1="881.5" x2="1125.4" y2="863.1"/>
						<line class="st21" x1="1173" y1="863.6" x2="1172.9" y2="882"/>
					</g>
					<g>
						<g>
							<g>
								<g>
									<path class="st18" d="M1204.5,828.1c-8.2-5.4-31.2-9.3-58.4-9.3c-27.2,0-50.3,3.8-58.5,9.1l-3.2,0l0,18.4
										c0,7.5,27.6,13.5,61.6,13.6c34,0.1,61.7-5.9,61.7-13.4l0-18.4L1204.5,828.1z"/>
									<path class="st19" d="M1096,835.8l0,18.4c4,1.2,9,2.3,14.6,3.2l0-18.4C1104.9,838.1,1100,837,1096,835.8z"/>
									<path class="st19" d="M1146,841.5c-9.3,0-18.2-0.5-26.1-1.3l0,18.4c7.9,0.8,16.8,1.3,26.1,1.3c7.5,0,14.8-0.3,21.5-0.8
										l0-18.4C1160.8,841.2,1153.6,841.5,1146,841.5z"/>
									<path class="st19" d="M1175.8,839.8l0,18.4c6.9-0.8,13-1.9,18-3.2l0-18.4C1188.8,837.9,1182.7,839,1175.8,839.8z"/>
									
										<ellipse transform="matrix(1.737565e-03 -1 1 1.737565e-03 316.0919 1972.5868)" class="st20" cx="1146.1" cy="828" rx="13.5" ry="61.7"/>
									<path class="st21" d="M1182.3,822.1c-8.7-2-21.7-3.3-36.3-3.3c-26.3,0-47.7,4-47.7,9.1c0,1,0.9,2,2.5,2.9"/>
									<path class="st21" d="M1193.7,828.1c0,5.1-21.4,9.2-47.7,9.1c-8.3,0-16.1-0.4-22.9-1.2"/>
								</g>
							</g>
						</g>
						<line class="st21" x1="1096" y1="835.8" x2="1095.9" y2="854.1"/>
						<line class="st21" x1="1119.9" y1="858.5" x2="1119.9" y2="840.2"/>
						<line class="st21" x1="1167.5" y1="840.7" x2="1167.5" y2="859.1"/>
					</g>
				</g>
				<g>
					<g>
						<g>
							<g>
								<g>
									<path class="st18" d="M1632.4,917.4c-8.2-5.4-31.2-9.3-58.4-9.3c-27.2,0-50.3,3.8-58.5,9.1l-3.2,0l0,18.4
										c0,7.5,27.6,13.5,61.6,13.6c34,0.1,61.7-5.9,61.7-13.4l0-18.4L1632.4,917.4z"/>
									<path class="st19" d="M1523.9,925l0,18.4c4,1.2,9,2.3,14.6,3.2l0-18.4C1532.9,927.4,1527.9,926.3,1523.9,925z"/>
									<path class="st19" d="M1574,930.8c-9.3,0-18.2-0.5-26.1-1.3l0,18.4c7.9,0.8,16.8,1.3,26.1,1.3c7.5,0,14.8-0.3,21.5-0.8
										l0-18.4C1588.7,930.5,1581.5,930.8,1574,930.8z"/>
									<path class="st19" d="M1603.7,929.1l0,18.4c6.9-0.8,13-1.9,18-3.2l0-18.4C1616.7,927.2,1610.6,928.3,1603.7,929.1z"/>
									<path class="st20" d="M1635.6,917.4c0,7.5-27.6,13.4-61.7,13.4c-34-0.1-61.6-6.1-61.6-13.6c0-7.5,27.6-13.4,61.7-13.4
										S1635.7,909.9,1635.6,917.4z"/>
									<path class="st21" d="M1610.3,911.3c-8.7-2-21.7-3.3-36.3-3.3c-26.3,0-47.7,4-47.7,9.1c0,1,0.9,2,2.5,2.9"/>
									<path class="st22" d="M1621.7,917.3c0,5.1-21.4,9.2-47.7,9.1c-8.3,0-16.1-0.4-22.9-1.2"/>
								</g>
							</g>
						</g>
						<line class="st21" x1="1523.9" y1="925" x2="1523.9" y2="943.4"/>
						<line class="st21" x1="1547.8" y1="947.8" x2="1547.9" y2="929.4"/>
						<line class="st21" x1="1595.4" y1="930" x2="1595.4" y2="948.3"/>
					</g>
					<g>
						<g>
							<g>
								<g>
									<path class="st18" d="M1623.8,896.5c-8.2-5.4-31.2-9.3-58.4-9.3c-27.2,0-50.3,3.8-58.5,9.1l-3.2,0l0,18.4
										c0,7.5,27.6,13.5,61.6,13.6c34,0.1,61.7-5.9,61.7-13.4l0-18.4L1623.8,896.5z"/>
									<path class="st19" d="M1515.3,904.2l0,18.4c4,1.2,9,2.3,14.6,3.2l0-18.4C1524.2,906.5,1519.3,905.5,1515.3,904.2z"/>
									<path class="st19" d="M1565.4,909.9c-9.3,0-18.2-0.5-26.1-1.3l0,18.4c7.9,0.8,16.8,1.3,26.1,1.3c7.5,0,14.8-0.3,21.5-0.8
										l0-18.4C1580.1,909.7,1572.9,910,1565.4,909.9z"/>
									<path class="st19" d="M1595.1,908.3l0,18.4c6.9-0.8,13-1.9,18-3.2l0-18.4C1608.1,906.4,1602,907.5,1595.1,908.3z"/>
									
										<ellipse transform="matrix(1.737489e-03 -1 1 1.737489e-03 666.22 2460.2664)" class="st20" cx="1565.4" cy="896.4" rx="13.5" ry="61.7"/>
									<path class="st21" d="M1601.7,890.5c-8.7-2-21.7-3.3-36.3-3.3c-26.3,0-47.7,4-47.7,9.1c0,1,0.9,2,2.5,2.9"/>
									<path class="st21" d="M1613.1,896.5c0,5.1-21.4,9.2-47.7,9.1c-8.3,0-16.1-0.4-22.9-1.2"/>
								</g>
							</g>
						</g>
						<line class="st21" x1="1515.3" y1="904.2" x2="1515.3" y2="922.6"/>
						<line class="st21" x1="1539.2" y1="927" x2="1539.3" y2="908.6"/>
						<line class="st21" x1="1586.8" y1="909.1" x2="1586.8" y2="927.5"/>
					</g>
					<g>
						<g>
							<g>
								<g>
									<path class="st18" d="M1636.6,873.6c-8.2-5.4-31.2-9.3-58.4-9.3s-50.3,3.8-58.5,9.1l-3.2,0l0,18.4
										c0,7.5,27.6,13.5,61.6,13.6c34,0.1,61.7-5.9,61.7-13.4l0-18.4L1636.6,873.6z"/>
									<path class="st19" d="M1528,881.3l0,18.4c4,1.2,9,2.3,14.6,3.2l0-18.4C1537,883.6,1532,882.5,1528,881.3z"/>
									<path class="st19" d="M1578.1,887c-9.3,0-18.2-0.5-26.1-1.3l0,18.4c7.9,0.8,16.8,1.3,26.1,1.3c7.5,0,14.8-0.3,21.5-0.8
										l0-18.4C1592.8,886.7,1585.6,887,1578.1,887z"/>
									<path class="st19" d="M1607.8,885.4l0,18.4c6.9-0.8,13-1.9,18-3.2l0-18.4C1620.8,883.5,1614.7,884.6,1607.8,885.4z"/>
									<path class="st20" d="M1639.7,873.6c0,7.5-27.6,13.4-61.7,13.4c-34-0.1-61.6-6.2-61.6-13.6c0-7.5,27.6-13.4,61.7-13.4
										C1612.2,860.1,1639.8,866.2,1639.7,873.6z"/>
									<path class="st21" d="M1614.4,867.6c-8.7-2-21.7-3.3-36.3-3.3c-26.3,0-47.7,4-47.7,9.1c0,1,0.9,2,2.5,2.9"/>
									<path class="st21" d="M1625.8,873.6c0,5.1-21.4,9.2-47.7,9.1c-8.3,0-16.1-0.4-22.9-1.2"/>
								</g>
							</g>
						</g>
						<line class="st21" x1="1528" y1="881.3" x2="1528" y2="899.7"/>
						<line class="st21" x1="1551.9" y1="904.1" x2="1552" y2="885.7"/>
						<line class="st21" x1="1599.5" y1="886.2" x2="1599.5" y2="904.6"/>
					</g>
					<g>
						<g>
							<g>
								<g>
									<path class="st18" d="M1631.1,850.7c-8.2-5.4-31.2-9.3-58.4-9.3c-27.2,0-50.3,3.8-58.5,9.1l-3.2,0l0,18.4
										c0,7.5,27.6,13.5,61.6,13.6c34,0.1,61.7-5.9,61.7-13.4l0-18.4L1631.1,850.7z"/>
									<path class="st19" d="M1522.5,858.3l0,18.4c4,1.2,9,2.3,14.6,3.2l0-18.4C1531.5,860.6,1526.5,859.6,1522.5,858.3z"/>
									<path class="st19" d="M1572.6,864c-9.3,0-18.2-0.5-26.1-1.3l0,18.4c7.9,0.8,16.8,1.3,26.1,1.3c7.5,0,14.8-0.3,21.5-0.8
										l0-18.4C1587.4,863.8,1580.1,864.1,1572.6,864z"/>
									<path class="st19" d="M1602.3,862.4l0,18.4c6.9-0.8,13-1.9,18-3.2l0-18.4C1615.3,860.5,1609.2,861.6,1602.3,862.4z"/>
									<path class="st20" d="M1634.3,850.7c0,7.5-27.6,13.4-61.7,13.4c-34-0.1-61.6-6.1-61.6-13.6c0-7.5,27.6-13.4,61.7-13.4
										C1606.7,837.1,1634.3,843.2,1634.3,850.7z"/>
									<path class="st21" d="M1608.9,844.6c-8.7-2-21.7-3.3-36.3-3.3c-26.3,0-47.7,4-47.7,9.1c0,1,0.9,2,2.5,2.9"/>
									<path class="st21" d="M1620.3,850.6c0,5.1-21.4,9.2-47.7,9.1c-8.3,0-16.1-0.4-22.9-1.2"/>
								</g>
							</g>
						</g>
						<line class="st21" x1="1522.5" y1="858.3" x2="1522.5" y2="876.7"/>
						<line class="st21" x1="1546.4" y1="881.1" x2="1546.5" y2="862.7"/>
						<line class="st21" x1="1594" y1="863.2" x2="1594" y2="881.6"/>
					</g>
				</g>
				<g>
					<g>
						<g>
							<g>
								<g>
									<path class="st18" d="M1621,817.1c-8.2-5.4-31.2-9.3-58.4-9.3c-27.2,0-50.3,3.8-58.5,9.1l-3.2,0l0,18.4
										c0,7.5,27.6,13.5,61.6,13.6c34,0.1,61.7-5.9,61.7-13.4l0-18.4L1621,817.1z"/>
									<path class="st19" d="M1512.4,824.8l0,18.4c4,1.2,9,2.3,14.6,3.2l0-18.4C1521.4,827.1,1516.5,826,1512.4,824.8z"/>
									<path class="st19" d="M1562.5,830.5c-9.3,0-18.2-0.5-26.1-1.3l0,18.4c7.9,0.8,16.8,1.3,26.1,1.3c7.5,0,14.8-0.3,21.5-0.8
										l0-18.4C1577.3,830.3,1570.1,830.5,1562.5,830.5z"/>
									<path class="st19" d="M1592.3,828.9l0,18.4c6.9-0.8,13-1.9,18-3.2l0-18.4C1605.3,827,1599.2,828.1,1592.3,828.9z"/>
									<path class="st20" d="M1624.2,817.1c0,7.5-27.6,13.4-61.7,13.4c-34-0.1-61.6-6.2-61.6-13.6c0-7.5,27.6-13.4,61.7-13.4
										C1596.6,803.6,1624.2,809.7,1624.2,817.1z"/>
									<path class="st21" d="M1598.8,811.1c-8.7-2-21.7-3.3-36.3-3.3c-26.3,0-47.7,4-47.7,9.1c0,1,0.9,2,2.5,2.9"/>
									<path class="st22" d="M1610.2,817.1c0,5.1-21.4,9.2-47.7,9.1c-8.3,0-16.1-0.4-22.9-1.2"/>
								</g>
							</g>
						</g>
						<line class="st21" x1="1512.4" y1="824.8" x2="1512.4" y2="843.2"/>
						<line class="st21" x1="1536.4" y1="847.6" x2="1536.4" y2="829.2"/>
						<line class="st21" x1="1584" y1="829.7" x2="1583.9" y2="848.1"/>
					</g>
					<g>
						<g>
							<g>
								<g>
									<path class="st18" d="M1612.4,796.3c-8.2-5.4-31.2-9.3-58.4-9.3c-27.2,0-50.3,3.8-58.5,9.1l-3.2,0l0,18.4
										c0,7.5,27.6,13.5,61.6,13.6c34,0.1,61.7-5.9,61.7-13.4l0-18.4L1612.4,796.3z"/>
									<path class="st19" d="M1503.8,804l0,18.4c4,1.2,9,2.3,14.6,3.2l0-18.4C1512.8,806.3,1507.9,805.2,1503.8,804z"/>
									<path class="st19" d="M1553.9,809.7c-9.3,0-18.2-0.5-26.1-1.3l0,18.4c7.9,0.8,16.8,1.3,26.1,1.3c7.5,0,14.8-0.3,21.5-0.8
										l0-18.4C1568.7,809.4,1561.5,809.7,1553.9,809.7z"/>
									<path class="st19" d="M1583.7,808.1l0,18.4c6.9-0.8,13-1.9,18-3.2l0-18.4C1596.7,806.2,1590.6,807.3,1583.7,808.1z"/>
									
										<ellipse transform="matrix(1.737490e-03 -1 1 1.737490e-03 755.0286 2348.7603)" class="st20" cx="1553.9" cy="796.2" rx="13.5" ry="61.7"/>
									<path class="st21" d="M1590.2,790.3c-8.7-2-21.7-3.3-36.3-3.3c-26.3,0-47.7,4-47.7,9.1c0,1,0.9,2,2.5,2.9"/>
									<path class="st21" d="M1601.6,796.3c0,5.1-21.4,9.2-47.7,9.1c-8.3,0-16.1-0.4-22.9-1.2"/>
								</g>
							</g>
						</g>
						<line class="st21" x1="1503.8" y1="804" x2="1503.8" y2="822.4"/>
						<line class="st21" x1="1527.8" y1="826.8" x2="1527.8" y2="808.4"/>
						<line class="st21" x1="1575.4" y1="808.9" x2="1575.3" y2="827.3"/>
					</g>
					<g>
						<g>
							<g>
								<g>
									<path class="st18" d="M1625.1,773.4c-8.2-5.4-31.2-9.3-58.4-9.3c-27.2,0-50.3,3.8-58.5,9.1l-3.2,0l0,18.4
										c0,7.5,27.6,13.5,61.6,13.6c34,0.1,61.7-5.9,61.7-13.4l0-18.4L1625.1,773.4z"/>
									<path class="st19" d="M1516.5,781.1l0,18.4c4,1.2,9,2.3,14.6,3.2l0-18.4C1525.5,783.4,1520.6,782.3,1516.5,781.1z"/>
									<path class="st19" d="M1566.6,786.8c-9.3,0-18.2-0.5-26.1-1.3l0,18.4c7.9,0.8,16.8,1.3,26.1,1.3c7.5,0,14.8-0.3,21.5-0.8
										l0-18.4C1581.4,786.5,1574.2,786.8,1566.6,786.8z"/>
									<path class="st19" d="M1596.4,785.1l0,18.4c6.9-0.8,13-1.9,18-3.2l0-18.4C1609.4,783.2,1603.3,784.3,1596.4,785.1z"/>
									<path class="st20" d="M1628.3,773.4c0,7.5-27.6,13.4-61.7,13.4s-61.6-6.1-61.6-13.6c0-7.5,27.6-13.4,61.7-13.4
										C1600.7,759.8,1628.3,765.9,1628.3,773.4z"/>
									<path class="st21" d="M1602.9,767.4c-8.7-2-21.7-3.3-36.3-3.3c-26.3,0-47.7,4-47.7,9.1c0,1,0.9,2,2.5,2.9"/>
									<path class="st21" d="M1614.3,773.4c0,5.1-21.4,9.2-47.7,9.1c-8.3,0-16.1-0.4-22.9-1.2"/>
								</g>
							</g>
						</g>
						<line class="st21" x1="1516.5" y1="781.1" x2="1516.5" y2="799.4"/>
						<line class="st21" x1="1540.5" y1="803.8" x2="1540.5" y2="785.5"/>
						<line class="st21" x1="1588.1" y1="786" x2="1588" y2="804.4"/>
					</g>
					<g>
						<g>
							<g>
								<g>
									<path class="st18" d="M1619.6,750.4c-8.2-5.4-31.2-9.3-58.4-9.3c-27.2,0-50.3,3.8-58.5,9.1l-3.2,0l0,18.4
										c0,7.5,27.6,13.5,61.6,13.6c34,0.1,61.7-5.9,61.7-13.4l0-18.4L1619.6,750.4z"/>
									<path class="st19" d="M1511.1,758.1l0,18.4c4,1.2,9,2.3,14.6,3.2l0-18.4C1520,760.4,1515.1,759.3,1511.1,758.1z"/>
									<path class="st19" d="M1561.1,763.8c-9.3,0-18.2-0.5-26.1-1.3l0,18.4c7.9,0.8,16.8,1.3,26.1,1.3c7.5,0,14.8-0.3,21.5-0.8
										l0-18.4C1575.9,763.5,1568.7,763.8,1561.1,763.8z"/>
									<path class="st19" d="M1590.9,762.2l0,18.4c6.9-0.8,13-1.9,18-3.2l0-18.4C1603.9,760.3,1597.8,761.4,1590.9,762.2z"/>
									<path class="st20" d="M1622.8,750.4c0,7.5-27.6,13.4-61.7,13.4s-61.6-6.1-61.6-13.6c0-7.5,27.6-13.4,61.7-13.4
										C1595.2,736.9,1622.8,743,1622.8,750.4z"/>
									<path class="st21" d="M1597.4,744.4c-8.7-2-21.7-3.3-36.3-3.3c-26.3,0-47.7,4-47.7,9.1c0,1,0.9,2,2.5,2.9"/>
									<path class="st21" d="M1608.8,750.4c0,5.1-21.4,9.2-47.7,9.1c-8.3,0-16.1-0.4-22.9-1.2"/>
								</g>
							</g>
						</g>
						<line class="st21" x1="1511.1" y1="758.1" x2="1511" y2="776.5"/>
						<line class="st21" x1="1535" y1="780.9" x2="1535" y2="762.5"/>
						<line class="st21" x1="1582.6" y1="763" x2="1582.6" y2="781.4"/>
					</g>
				</g>
				<path class="st23" d="M1374.3,963.2l-142.6-9c-28.8-1.8-57.7,0.7-85.7,7.8c-28.3,7.1-55.5,17.1-40.4,27.1
					c13.3,8.8,123.5,12.3,236.6,11.2c-9.1,2.1-14.3,4.6-14.3,7.2c0,8.3,52.2,15,116.6,15c64.4,0,116.6-6.7,116.6-15
					c0-5.3-21-9.9-52.8-12.6c53-3.3,90.1-8.2,92.2-14.3C1608.2,958.4,1374.3,963.2,1374.3,963.2z"/>
				<g>
					<path class="st5" d="M1566.4,966.4c-6.9-15.4-26.9-38.4-30.7-62.8c-8.3-52.8,10.6-157.7-51.1-236.5
						c-29-37-87.8-61.4-134.8-61.4l0,0l0,0c-47,0-105.3,29.1-134.3,66.1c-61.7,78.8-43.2,178.9-51.6,231.7
						c-3.8,24.4-14.9,52.7-24.1,66.9c-5.3,8.3,65.3,1.5,65.3,1.5l33.1,5.9c71,12.5,143.5,14.4,215.1,5.6l64.7-8
						C1528.1,975.5,1575.1,985.7,1566.4,966.4z"/>
					<path class="st24" d="M1324.6,610.9c0,0,30.8,19.2,51.8,21.6s9.7-7.8,9.7-7.8s23.3-5.1,19.7-8.4
						C1402.2,613,1346.5,601.5,1324.6,610.9z"/>
					<g>
						<path class="st5" d="M1284,546.6c6-4.7,26.8-2,64-19.4c28.1-13.1,50,19,63.8,23.8c13.8,4.8,36.9,22,15.5,33.4
							c-15.1,8-18.3,38.5-75,36C1301.1,618,1260.9,564.6,1284,546.6z"/>
						<path class="st25" d="M1301.1,556.7c0,0,39.3-8.2,35.6,23c-3.7,31.1-23.3,7.8-9.7-11.8c9.5-13.6,30.1-36.2,50.4-17.6
							c20.3,18.6,15.1,52,3.6,48.2c-11.6-3.8,2.9-38.8,27.8-31.1"/>
					</g>
					<line class="st25" x1="1555.3" y1="978" x2="1485" y2="969"/>
					<line class="st25" x1="1247.7" y1="979.5" x2="1176.1" y2="966.1"/>
					<path class="st5" d="M1252.2,683.6c0,0-26,26.6-25,58.8"/>
					<path class="st25" d="M1318.4,789.3c0,0,73.8,31,95.7,66.9"/>
					<path class="st25" d="M1287.8,819c0,0,28.5,19.7,44.4,23.8"/>
					<line class="st25" x1="1433.2" y1="654.5" x2="1443.2" y2="660.1"/>
					<line class="st25" x1="1446.3" y1="654.5" x2="1457" y2="660.1"/>
					<line class="st22" x1="1258.7" y1="665.8" x2="1252.2" y2="670.1"/>
				</g>
				<g>
					<g>
						<g>
							<g>
								<path class="st18" d="M1164.9,891.5c-9.8,0-31.2,9.3-54.1,24c-22.8,14.8-40.1,30.6-44.1,39.5l-2.7,1.7l10,15.4
									c4.1,6.3,30.5-3.7,59.1-22.2c28.6-18.5,48.5-38.6,44.4-44.8l-10-15.4L1164.9,891.5z"/>
								<path class="st19" d="M1078.1,957.1l10,15.4c4-1.2,8.8-2.9,14-5.3l-10-15.4C1086.9,954.2,1082.1,955.9,1078.1,957.1z"/>
								<path class="st19" d="M1123.2,934.6c-7.8,5.1-15.5,9.5-22.6,13.1l10,15.4c7.1-3.6,14.8-8.1,22.6-13.1
									c6.3-4.1,12.2-8.3,17.6-12.4l-10-15.4C1135.4,926.3,1129.5,930.5,1123.2,934.6z"/>
								<path class="st19" d="M1147.2,917l10,15.4c5.3-4.4,9.8-8.7,13.3-12.5l-10-15.4C1157.1,908.3,1152.6,912.6,1147.2,917z"/>
								<path class="st20" d="M1167.6,889.8c4.1,6.3-15.8,26.3-44.4,44.8c-28.6,18.5-55,28.4-59.1,22.2
									c-4.1-6.3,15.8-26.3,44.4-44.8C1137.1,893.4,1163.5,883.5,1167.6,889.8z"/>
								<path class="st21" d="M1143,898.5c-8.4,3.1-20,9.1-32.2,17c-22.1,14.3-37.8,29.4-35,33.7c0.6,0.9,1.8,1.2,3.7,1.1"/>
								<path class="st22" d="M1155.9,897.3c2.8,4.3-12.9,19.3-35,33.7c-7,4.5-13.7,8.4-19.8,11.5"/>
							</g>
						</g>
					</g>
					<line class="st21" x1="1078.1" y1="957.1" x2="1088.1" y2="972.5"/>
					<line class="st21" x1="1110.6" y1="963.2" x2="1100.6" y2="947.7"/>
					<line class="st21" x1="1140.7" y1="922.2" x2="1150.7" y2="937.7"/>
				</g>
				<g>
					<g>
						<path class="st22" d="M1440.7,977.6c0,0-9.2-34.1,22.3-55.3"/>
						<path class="st22" d="M1437.5,947c0,0,1.1-4.4,4.1-8.2"/>
						<path class="st22" d="M1526.8,997.3c0,0,13.7-13.9,11.2-39.6"/>
					</g>
					<g>
						<path class="st18" d="M1522,1011.8c25.8-18.3,31.8-54.1,13.5-79.8c-18.3-25.8-54.1-31.8-79.8-13.5
							c-25.8,18.3-31.8,54.1-13.5,79.8C1460.5,1024.1,1496.2,1030.1,1522,1011.8"/>
						<path class="st20" d="M1517.6,1005.7c22.4-15.9,27.6-46.9,11.8-69.3c-15.9-22.4-46.9-27.6-69.3-11.8
							c-22.4,15.9-27.6,46.9-11.8,69.3C1464.2,1016.3,1495.3,1021.6,1517.6,1005.7"/>
						<g>
							<g>
								<g>
									<path class="st8" d="M1462.2,972.8c0.5,1.1,1.8,1.6,2.9,1.2c1.1-0.5,1.6-1.8,1.2-2.9c-0.5-1.1-1.8-1.6-2.9-1.2
										C1462.2,970.4,1461.7,971.7,1462.2,972.8"/>
									<path class="st8" d="M1524.5,981.4c0.5,1.1,1.8,1.6,2.9,1.2c1.1-0.5,1.6-1.8,1.2-2.9c-0.5-1.1-1.8-1.6-2.9-1.2
										C1524.6,979,1524,980.3,1524.5,981.4"/>
									<path class="st8" d="M1447.5,968.4c1.2,3,4.8,4.4,7.7,3.2c3-1.2,4.4-4.8,3.2-7.7c-1.2-3-4.8-4.4-7.7-3.2
										C1447.7,961.9,1446.3,965.4,1447.5,968.4"/>
								</g>
							</g>
						</g>
						<g class="st26">
							<path class="st3" d="M1480.8,933.9l2.3,5.6l0.1-0.1c2.1-0.9,4.7-1.5,7.7-1.9c3.9-0.5,6.2-0.1,6.8,1.4
								c0.8,1.9,0.2,3.3-1.7,4.1c-0.9,0.4-2.5,0.8-4.9,1.2c-2.4,0.5-4.2,0.9-5.4,1.5l5.6,13.4c5-1.6,9.5-1.6,13.4,0
								c3.6,1.5,6.1,4,7.6,7.6c1.8,4.4,1.8,8.7,0,12.9c-1.6,3.7-4.4,6.8-8.4,9.4l3.7,8.7c0.4,0.9,0.4,1.7,0,2.5
								c-0.3,0.8-0.9,1.4-1.8,1.7c-1.9,0.8-3.3,0.2-4.1-1.7l-3.5-8.4c-10.8,4.3-17.3,3.8-19.5-1.6c-0.8-2-0.3-3.3,1.5-4.1
								c1-0.4,2.2-0.4,3.5,0c1.9,0.6,3.3,1,4.2,1c2.1,0.1,4.7-0.4,7.8-1.5l-7.8-18.6l-0.3,0.1c-3.5,1.3-6.7,1.7-9.9,1.2
								c-3.9-0.6-6.5-2.6-7.9-5.9c-1.3-3-1-6.4,0.7-10.2c1.6-3.5,4-6.6,7.2-9.3l-2.6-6.3c-0.4-0.9-0.4-1.7,0-2.5
								c0.3-0.8,0.9-1.4,1.8-1.8C1478.7,931.5,1480,932,1480.8,933.9z M1485.3,961l-4.9-11.8c-3.7,3.5-4.8,6.9-3.3,10.4
								C1477.9,961.7,1480.6,962.1,1485.3,961z M1494,965.5l7.2,17.1c2-1.8,3.4-3.7,4.4-5.9c1-2.5,1.1-4.7,0.2-6.8
								C1504.1,966,1500.2,964.6,1494,965.5z"/>
						</g>
						<g>
							<path class="st27" d="M1492,922.3c0,0,4.3,0.3,7.6,1.7"/>
							<path class="st27" d="M1475.4,1005.5c0,0,3.9,1.6,7.4,1.8"/>
						</g>
					</g>
				</g>
			</g>
		</g>
	</g>
	<g>
		<g>
			<g>
				<polygon class="st5" points="579.5,834.5 585.5,834.6 585.4,840.6 590,840.7 590.1,834.6 596.1,834.7 596.2,830.1 590.2,830 
					590.2,824 585.6,823.9 585.5,830 579.5,829.9 				"/>
				<polygon class="st5" points="530.2,834 536.2,834 536.1,840 540.8,840.1 540.9,834.1 546.9,834.2 546.9,829.5 540.9,829.4 
					541,823.4 536.3,823.4 536.3,829.4 530.3,829.3 				"/>
				<polygon class="st5" points="481,833.4 487,833.5 486.9,839.5 491.5,839.5 491.6,833.5 497.6,833.6 497.7,828.9 491.7,828.9 
					491.7,822.9 487.1,822.8 487,828.8 481,828.8 				"/>
				<polygon class="st5" points="580,790.1 586,790.2 585.9,796.2 590.5,796.2 590.6,790.2 596.6,790.3 596.7,785.7 590.7,785.6 
					590.7,779.6 586.1,779.5 586,785.5 580,785.5 				"/>
				<polygon class="st5" points="530.7,789.5 536.7,789.6 536.7,795.6 541.3,795.7 541.4,789.7 547.4,789.7 547.4,785.1 541.4,785 
					541.5,779 536.8,779 536.8,785 530.8,784.9 				"/>
				<polygon class="st5" points="481.5,789 487.5,789.1 487.4,795.1 492,795.1 492.1,789.1 498.1,789.2 498.2,784.5 492.2,784.5 
					492.2,778.4 487.6,778.4 487.5,784.4 481.5,784.3 				"/>
			</g>
			<g>
				<polygon class="st5" points="1831.8,500.2 1837.8,500.3 1837.7,506.3 1842.3,506.3 1842.4,500.3 1848.4,500.4 1848.5,495.7 
					1842.5,495.7 1842.5,489.7 1837.9,489.6 1837.8,495.6 1831.8,495.5 				"/>
				<polygon class="st5" points="1782.5,499.6 1788.5,499.7 1788.5,505.7 1793.1,505.8 1793.2,499.7 1799.2,499.8 1799.2,495.2 
					1793.2,495.1 1793.3,489.1 1788.6,489 1788.6,495.1 1782.6,495 				"/>
				<polygon class="st5" points="1733.3,499.1 1739.3,499.1 1739.2,505.1 1743.8,505.2 1743.9,499.2 1749.9,499.3 1750,494.6 
					1744,494.5 1744,488.5 1739.4,488.5 1739.3,494.5 1733.3,494.4 				"/>
				<polygon class="st5" points="1832.3,455.8 1838.3,455.8 1838.2,461.9 1842.9,461.9 1842.9,455.9 1848.9,456 1849,451.3 
					1843,451.3 1843,445.2 1838.4,445.2 1838.3,451.2 1832.3,451.1 				"/>
				<polygon class="st5" points="1783,455.2 1789,455.3 1789,461.3 1793.6,461.3 1793.7,455.3 1799.7,455.4 1799.7,450.8 
					1793.7,450.7 1793.8,444.7 1789.2,444.6 1789.1,450.6 1783.1,450.6 				"/>
				<polygon class="st5" points="1733.8,454.6 1739.8,454.7 1739.7,460.7 1744.4,460.8 1744.4,454.8 1750.4,454.8 1750.5,450.2 
					1744.5,450.1 1744.5,444.1 1739.9,444.1 1739.8,450.1 1733.8,450 				"/>
			</g>
			<g>
				<polygon class="st5" points="690.1,253.1 696.1,253.2 696.1,259.2 700.7,259.3 700.8,253.3 706.8,253.3 706.8,248.7 
					700.8,248.6 700.9,242.6 696.2,242.6 696.2,248.6 690.2,248.5 				"/>
				<polygon class="st5" points="640.9,252.6 646.9,252.6 646.8,258.7 651.5,258.7 651.5,252.7 657.5,252.8 657.6,248.1 
					651.6,248.1 651.6,242 647,242 646.9,248 640.9,247.9 				"/>
				<polygon class="st5" points="591.6,252 597.6,252.1 597.6,258.1 602.2,258.1 602.3,252.1 608.3,252.2 608.3,247.6 602.3,247.5 
					602.4,241.5 597.7,241.4 597.7,247.4 591.7,247.4 				"/>
				<polygon class="st5" points="690.6,208.7 696.6,208.8 696.6,214.8 701.2,214.9 701.3,208.8 707.3,208.9 707.3,204.3 
					701.3,204.2 701.4,198.2 696.8,198.1 696.7,204.2 690.7,204.1 				"/>
				<polygon class="st5" points="641.4,208.2 647.4,208.2 647.3,214.2 652,214.3 652,208.3 658,208.4 658.1,203.7 652.1,203.6 
					652.1,197.6 647.5,197.6 647.4,203.6 641.4,203.5 				"/>
				<polygon class="st5" points="592.1,207.6 598.1,207.7 598.1,213.7 602.7,213.7 602.8,207.7 608.8,207.8 608.8,203.1 
					602.8,203.1 602.9,197.1 598.3,197 598.2,203 592.2,203 				"/>
			</g>
		</g>
		<g>
			<g>
				<path class="st3" d="M855.7,318.7c5.1-0.1,10.3-0.1,15.4-0.2c2.5,0,5-0.1,7.5-0.1c3.8,0,7.4-3.5,7.2-7.4c-0.2-4-3.3-7.3-7.4-7.2
					c-7.6,0.1-15.3,0.2-22.9,0.3c-0.1-5.1-0.1-10.3-0.2-15.4c0-2.5-0.1-5-0.1-7.5c0-3.8-3.5-7.4-7.4-7.2c-4,0.2-7.3,3.3-7.2,7.4
					c0.1,7.6,0.2,15.3,0.3,22.9c-5.1,0.1-10.3,0.1-15.4,0.2c-2.5,0-5,0.1-7.5,0.1c-3.8,0-7.4,3.5-7.2,7.4c0.2,4,3.3,7.3,7.4,7.2
					c7.6-0.1,15.3-0.2,22.9-0.3c0.1,5.1,0.1,10.3,0.2,15.4c0,2.5,0.1,5,0.1,7.5c0,3.8,3.5,7.4,7.4,7.2c4-0.2,7.3-3.3,7.2-7.4
					C855.9,334,855.8,326.4,855.7,318.7z"/>
			</g>
			<g>
				<path class="st3" d="M1844.4,706.4c4.6-0.1,9.1-0.1,13.7-0.2c2.2,0,4.5-0.1,6.7-0.1c3.4,0,6.6-3.1,6.4-6.6
					c-0.2-3.5-2.9-6.5-6.6-6.4c-6.8,0.1-13.6,0.2-20.4,0.3c-0.1-4.6-0.1-9.1-0.2-13.7c0-2.2-0.1-4.5-0.1-6.7c0-3.4-3.1-6.6-6.6-6.4
					c-3.5,0.2-6.5,2.9-6.4,6.6c0.1,6.8,0.2,13.6,0.3,20.4c-4.6,0.1-9.1,0.1-13.7,0.2c-2.2,0-4.5,0.1-6.7,0.1c-3.4,0-6.6,3.1-6.4,6.6
					c0.2,3.5,2.9,6.5,6.6,6.4c6.8-0.1,13.6-0.2,20.4-0.3c0.1,4.6,0.1,9.1,0.2,13.7c0,2.2,0.1,4.5,0.1,6.7c0,3.4,3.1,6.6,6.6,6.4
					c3.5-0.2,6.5-2.9,6.4-6.6C1844.6,720,1844.5,713.2,1844.4,706.4z"/>
			</g>
			<g>
				<path class="st3" d="M782.9,952.7c3.8,0,7.7-0.1,11.5-0.1c1.9,0,3.8,0,5.6-0.1c2.9,0,5.5-2.6,5.4-5.5c-0.2-3-2.5-5.4-5.5-5.4
					c-5.7,0.1-11.4,0.1-17.1,0.2c0-3.8-0.1-7.7-0.1-11.5c0-1.9,0-3.8-0.1-5.6c0-2.9-2.6-5.5-5.5-5.4c-3,0.2-5.4,2.5-5.4,5.5
					c0.1,5.7,0.1,11.4,0.2,17.1c-3.8,0-7.7,0.1-11.5,0.1c-1.9,0-3.8,0-5.6,0.1c-2.9,0-5.5,2.6-5.4,5.5c0.2,3,2.5,5.4,5.5,5.4
					c5.7-0.1,11.4-0.1,17.1-0.2c0,3.8,0.1,7.7,0.1,11.5c0,1.9,0,3.8,0.1,5.6c0,2.9,2.6,5.5,5.5,5.4c3-0.2,5.4-2.5,5.4-5.5
					C783.1,964.1,783,958.4,782.9,952.7z"/>
			</g>
			<g>
				<path class="st3" d="M152.1,241.3c3.8,0,7.7-0.1,11.5-0.1c1.9,0,3.8,0,5.6-0.1c2.9,0,5.5-2.6,5.4-5.5c-0.2-3-2.5-5.4-5.5-5.4
					c-5.7,0.1-11.4,0.1-17.1,0.2c0-3.8-0.1-7.7-0.1-11.5c0-1.9,0-3.8-0.1-5.6c0-2.9-2.6-5.5-5.5-5.4c-3,0.2-5.4,2.5-5.4,5.5
					c0.1,5.7,0.1,11.4,0.2,17.1c-3.8,0-7.7,0.1-11.5,0.1c-1.9,0-3.8,0-5.6,0.1c-2.9,0-5.5,2.6-5.4,5.5c0.2,3,2.5,5.4,5.5,5.4
					c5.7-0.1,11.4-0.1,17.1-0.2c0,3.8,0.1,7.7,0.1,11.5c0,1.9,0,3.8,0.1,5.6c0,2.9,2.6,5.5,5.5,5.4c3-0.2,5.4-2.5,5.4-5.5
					C152.3,252.7,152.2,247,152.1,241.3z"/>
			</g>
		</g>
	</g>
</g>
<g id="TEXTS">
	<g>
		<g>
			<g>
				<text transform="matrix(1 0 0 1 133.926 425.7179)" class="st28 st29 st30">FINANCIAL</text>
			</g>
		</g>
		<text transform="matrix(1 0 0 1 138.9553 524.694)" class="st31 st29 st32">SOLUTIONS</text>
	</g>
</g>
</svg>
